<?xml version="1.0" encoding="UTF-8"?>
<svg id="katman_2" data-name="katman 2" xmlns="http://www.w3.org/2000/svg" viewBox="0 0 1000 1579.43">
  <defs>
    <style>
      .cls-1 {
        fill: #fff;
      }
    </style>
  </defs>
  <g id="katman_1" data-name="katman 1">
    <g>
      <path class="cls-1" d="M1000,963.23l-97.69,133.39-231.52,307.19h0s-54.68-12.76-54.68-12.76l-18.3,89.23-78.63,99.15h-38.36l-78.64-99.16-18.31-89.22-54.63,12.77-231.56-307.2L0,963.23l76.58-21.92-59.06-192.57,186.04-409.67-2.31,240.86,94.96,77.59,108.77-139.74-113.4-58.28,86.61-220.15L710.44,0l-152.67,306.65,153.68,125.06-60.15,176.74,52.5,49.06,94.96-77.59-2.31-240.86,186.04,409.67-59.05,192.57,76.57,21.92Z"/>
      <path d="M779.98,794.96l-279.98-134.83-279.98,134.83-69.15,302.97,193.75,242.96,67.56-46.47,69.24,227.35c18.16,0,17.02,0,35.18,0l69.24-227.35,69.54,46.47,193.75-242.96-69.15-302.97ZM388.73,1137.68l-136.89-39.76-26.83-85.98,64.97-85.44,122.19,78.87,25.21,111.3-48.65,21.01ZM748.17,1097.93l-136.89,39.76-48.65-21.01,25.21-111.3,122.19-78.87,64.97,85.44-26.83,85.98Z"/>
    </g>
  </g>
</svg>